<svg id="svg" version="1.1" xmlns="http://www.w3.org/2000/svg" xmlns:xlink="http://www.w3.org/1999/xlink" width="400" height="400" viewBox="0, 0, 400,400"><g id="svgg"><path id="path0" d="M107.600 13.465 C 22.393 21.799,-17.179 123.309,40.143 186.506 C 41.891 188.434,43.250 190.072,43.161 190.145 C 43.073 190.219,41.650 191.188,40.000 192.298 C 1.537 218.174,5.439 276.738,47.000 297.367 C 59.748 303.695,62.403 303.990,106.500 303.996 L 139.200 304.000 139.200 325.200 L 139.200 346.400 131.700 346.392 L 124.200 346.384 122.844 343.499 C 114.041 324.768,85.804 330.484,84.495 351.261 C 83.118 373.114,113.562 380.861,122.963 361.050 L 124.391 358.042 133.495 357.921 C 144.812 357.771,146.553 357.112,149.663 351.800 L 150.600 350.200 150.800 327.200 L 151.000 304.200 168.708 304.200 L 186.416 304.200 186.439 325.200 L 186.463 346.200 183.731 347.573 C 164.451 357.266,170.933 386.000,192.400 386.000 C 213.833 386.000,220.552 357.126,201.300 347.756 L 198.400 346.344 198.400 325.169 L 198.400 303.994 223.700 304.097 L 249.000 304.200 249.200 327.200 C 249.421 352.667,249.220 350.810,252.133 354.213 C 254.915 357.463,256.156 357.783,266.499 357.921 L 275.598 358.042 276.821 360.506 C 283.465 373.897,299.469 376.816,309.561 366.478 C 319.598 356.197,316.689 340.284,303.600 333.867 L 300.200 332.200 295.400 332.200 C 286.880 332.200,280.651 336.063,277.147 343.519 L 275.800 346.384 268.300 346.392 L 260.800 346.400 260.800 325.200 L 260.800 304.000 291.100 303.994 C 326.058 303.986,330.696 303.746,338.600 301.529 C 387.425 287.833,403.154 227.539,367.174 192.000 C 355.907 180.871,341.160 174.120,326.400 173.336 C 320.858 173.041,320.800 173.004,320.800 169.772 C 320.800 146.586,307.410 119.828,287.926 104.076 C 275.227 93.810,255.613 85.377,243.726 85.073 C 235.989 84.876,234.854 94.601,242.407 96.374 C 243.393 96.606,246.090 97.173,248.400 97.633 C 284.891 104.913,311.285 139.013,309.316 176.335 C 308.920 183.832,310.563 185.460,318.113 185.051 C 362.506 182.646,390.574 231.442,366.045 268.382 C 358.138 280.290,344.755 288.924,330.430 291.359 C 324.744 292.325,70.715 292.341,65.544 291.375 C 29.872 284.714,13.152 243.648,34.040 214.000 C 39.734 205.918,52.054 196.655,53.997 198.996 C 55.419 200.709,65.338 206.898,71.833 210.125 C 139.209 243.593,219.122 195.029,220.699 119.658 C 222.007 57.129,169.097 7.450,107.600 13.465 M121.885 25.818 C 127.143 28.438,131.911 34.706,136.629 45.200 C 139.236 50.998,142.197 59.568,141.744 60.001 C 139.928 61.736,95.123 61.883,92.340 60.163 C 91.973 59.936,95.078 50.830,97.144 46.071 C 104.402 29.356,113.705 21.741,121.885 25.818 M143.627 28.628 C 152.434 31.175,162.515 36.145,170.200 41.729 C 175.109 45.295,182.000 51.329,182.000 52.061 C 182.000 53.027,158.886 58.800,155.018 58.800 C 153.746 58.800,153.708 58.747,152.841 55.700 C 150.576 47.739,146.307 37.847,142.469 31.668 C 139.814 27.393,139.769 27.512,143.627 28.628 M92.452 30.132 C 88.058 37.331,84.721 44.846,81.806 54.100 C 79.998 59.840,81.233 59.526,70.000 57.107 C 61.172 55.207,52.400 52.599,52.400 51.875 C 52.400 51.416,55.010 48.977,59.600 45.145 C 63.596 41.809,71.888 36.595,76.800 34.330 C 81.923 31.968,84.626 30.933,89.600 29.433 C 93.141 28.365,93.480 28.448,92.452 30.132 M192.501 63.700 C 197.566 70.847,202.541 81.007,205.380 90.000 C 207.415 96.446,209.671 108.996,209.074 110.552 C 208.845 111.149,206.738 111.197,184.911 111.103 L 161.000 111.000 160.690 106.400 C 159.669 91.257,158.497 79.684,157.395 73.856 C 157.068 72.127,156.800 70.661,156.800 70.599 C 156.800 70.336,158.400 69.924,163.137 68.964 C 170.782 67.417,178.038 65.451,184.215 63.255 C 191.155 60.788,190.409 60.748,192.501 63.700 M47.290 62.754 C 53.293 65.133,62.084 67.593,71.763 69.602 C 78.212 70.941,78.059 70.806,77.345 74.537 C 75.737 82.930,74.424 94.828,74.071 104.200 L 73.800 111.400 49.623 111.503 C 36.326 111.560,25.312 111.470,25.147 111.303 C 24.291 110.437,27.023 96.588,29.593 88.764 C 32.680 79.364,42.234 61.600,44.203 61.600 C 44.300 61.600,45.689 62.119,47.290 62.754 M98.782 72.993 C 110.989 74.054,135.584 73.594,143.454 72.157 C 145.062 71.864,145.103 71.944,146.026 77.252 C 147.935 88.216,148.777 96.278,148.906 104.800 L 149.000 111.000 117.200 111.000 L 85.400 111.000 85.264 108.600 C 85.067 105.105,86.467 87.746,87.400 82.108 C 87.501 81.499,87.868 79.232,88.215 77.072 C 89.049 71.884,89.049 71.884,90.556 72.159 C 91.240 72.284,94.942 72.659,98.782 72.993 M73.210 123.826 C 73.424 124.390,73.600 126.415,73.599 128.326 C 73.597 133.321,74.790 146.260,76.095 155.400 C 76.566 158.700,76.962 161.930,76.975 162.578 L 77.000 163.755 71.800 164.830 C 62.098 166.835,54.221 168.988,47.945 171.349 C 45.824 172.147,43.896 172.800,43.659 172.800 C 42.232 172.800,33.839 157.610,31.036 149.957 C 27.928 141.467,24.159 124.562,25.052 123.117 C 25.159 122.942,35.951 122.800,49.034 122.800 L 72.820 122.800 73.210 123.826 M148.887 127.400 C 148.616 138.017,146.122 159.784,144.963 161.659 C 144.828 161.878,144.062 161.952,143.259 161.824 C 134.894 160.492,99.206 160.502,90.844 161.839 C 89.071 162.123,89.048 162.089,88.385 158.239 C 88.173 157.007,87.816 154.965,87.591 153.700 C 85.812 143.697,84.454 124.080,85.469 123.064 C 85.617 122.916,99.972 122.841,117.369 122.898 L 149.000 123.000 148.887 127.400 M209.075 123.451 C 209.791 125.318,207.217 138.458,204.578 146.400 C 201.263 156.378,192.264 172.701,190.166 172.542 C 189.745 172.510,186.790 171.578,183.600 170.471 C 177.502 168.354,169.572 166.252,162.200 164.798 C 156.513 163.677,156.708 163.935,157.618 158.744 C 159.212 149.650,160.307 139.439,160.616 130.800 C 160.753 126.950,160.935 123.575,161.020 123.300 C 161.288 122.435,208.743 122.585,209.075 123.451 M137.900 173.228 C 140.155 173.495,142.000 173.847,142.000 174.011 C 142.000 175.833,137.348 187.822,134.539 193.239 C 121.365 218.649,105.394 213.147,93.787 179.200 C 92.847 176.450,92.148 174.086,92.234 173.947 C 93.080 172.571,127.726 172.026,137.900 173.228 M165.600 177.017 C 169.010 177.774,173.690 178.952,176.000 179.635 C 178.310 180.318,180.620 180.973,181.133 181.091 C 182.746 181.462,182.518 182.231,180.123 184.498 C 170.572 193.540,158.952 200.432,146.234 204.598 C 140.299 206.542,140.350 206.566,142.764 202.946 C 146.157 197.857,149.595 190.162,152.592 180.941 C 153.532 178.049,154.408 175.510,154.538 175.300 C 154.840 174.812,157.605 175.241,165.600 177.017 M81.588 179.700 C 84.337 188.714,87.594 196.118,91.892 203.124 C 92.879 204.732,93.590 206.143,93.473 206.261 C 92.810 206.923,81.289 202.513,74.800 199.113 C 65.624 194.305,50.718 183.183,52.265 182.299 C 54.663 180.928,75.739 175.722,79.269 175.628 C 80.282 175.601,80.403 175.815,81.588 179.700 M211.498 228.434 C 202.277 230.608,196.192 241.298,198.969 250.447 C 203.939 266.822,227.359 267.110,232.410 250.858 C 236.516 237.646,224.965 225.260,211.498 228.434 M263.847 228.445 C 253.577 230.856,247.867 243.362,252.611 253.058 C 258.879 265.869,277.863 266.077,284.000 253.400 C 290.586 239.795,278.619 224.977,263.847 228.445 M315.142 228.901 C 296.521 235.427,301.191 262.800,320.925 262.800 C 334.186 262.800,342.311 249.416,336.389 237.329 C 332.728 229.856,323.200 226.077,315.142 228.901 M45.200 232.865 C 37.049 235.197,42.109 256.044,53.302 266.247 C 63.509 275.550,81.598 279.690,84.255 273.331 C 86.308 268.417,83.849 265.200,77.600 264.623 C 63.384 263.311,52.809 252.158,52.799 238.465 C 52.795 234.412,49.159 231.732,45.200 232.865 M218.406 240.342 C 221.219 241.838,222.384 245.710,220.802 248.304 C 217.680 253.424,209.996 251.444,210.001 245.520 C 210.005 241.077,214.539 238.284,218.406 240.342 M271.116 240.362 C 274.954 242.332,275.029 248.620,271.238 250.581 C 269.582 251.437,266.871 251.362,265.322 250.418 C 259.040 246.587,264.565 236.999,271.116 240.362 M323.353 240.155 C 327.441 241.863,327.757 248.052,323.878 250.418 C 320.025 252.767,315.205 250.087,315.201 245.594 C 315.198 241.079,319.191 238.415,323.353 240.155 M107.328 344.029 C 112.451 345.451,115.000 351.878,112.278 356.509 C 109.333 361.519,103.012 362.441,98.909 358.459 C 92.399 352.142,98.554 341.592,107.328 344.029 M297.800 344.042 C 299.871 344.609,302.844 347.633,303.508 349.849 C 306.413 359.548,292.868 365.263,287.722 356.509 C 283.791 349.822,290.154 341.950,297.800 344.042 M194.928 358.029 C 200.016 359.442,202.574 365.902,199.871 370.515 C 196.246 376.701,187.861 376.394,184.654 369.958 C 181.345 363.318,187.643 356.006,194.928 358.029 " stroke="none" fill="#080808" fill-rule="evenodd"></path><path id="path1" d="M0.400 200.000 L 0.400 399.600 200.000 399.600 L 399.600 399.600 399.600 200.000 L 399.600 0.400 200.000 0.400 L 0.400 0.400 0.400 200.000 M127.800 13.609 C 190.958 20.673,233.282 81.226,217.819 142.400 C 202.573 202.716,137.482 236.377,79.874 213.738 C 71.383 210.401,56.359 201.842,53.997 198.996 C 52.054 196.655,39.734 205.918,34.040 214.000 C 13.152 243.648,29.872 284.714,65.544 291.375 C 70.715 292.341,324.744 292.325,330.430 291.359 C 344.755 288.924,358.138 280.290,366.045 268.382 C 390.574 231.442,362.506 182.646,318.113 185.051 C 310.563 185.460,308.920 183.832,309.316 176.335 C 311.285 139.013,284.891 104.913,248.400 97.633 C 246.090 97.173,243.393 96.606,242.407 96.374 C 234.854 94.601,235.989 84.876,243.726 85.073 C 255.613 85.377,275.227 93.810,287.926 104.076 C 307.410 119.828,320.800 146.586,320.800 169.772 C 320.800 173.004,320.858 173.041,326.400 173.336 C 341.160 174.120,355.907 180.871,367.174 192.000 C 403.154 227.539,387.425 287.833,338.600 301.529 C 330.696 303.746,326.058 303.986,291.100 303.994 L 260.800 304.000 260.800 325.200 L 260.800 346.400 268.300 346.392 L 275.800 346.384 277.147 343.519 C 280.651 336.063,286.880 332.200,295.400 332.200 L 300.200 332.200 303.600 333.867 C 316.689 340.284,319.598 356.197,309.561 366.478 C 299.469 376.816,283.465 373.897,276.821 360.506 L 275.598 358.042 266.499 357.921 C 256.156 357.783,254.915 357.463,252.133 354.213 C 249.220 350.810,249.421 352.667,249.200 327.200 L 249.000 304.200 223.700 304.097 L 198.400 303.994 198.400 325.169 L 198.400 346.344 201.300 347.756 C 220.552 357.126,213.833 386.000,192.400 386.000 C 170.933 386.000,164.451 357.266,183.731 347.573 L 186.463 346.200 186.439 325.200 L 186.416 304.200 168.708 304.200 L 151.000 304.200 150.800 327.200 L 150.600 350.200 149.663 351.800 C 146.553 357.112,144.812 357.771,133.495 357.921 L 124.391 358.042 122.963 361.050 C 113.562 380.861,83.118 373.114,84.495 351.261 C 85.804 330.484,114.041 324.768,122.844 343.499 L 124.200 346.384 131.700 346.392 L 139.200 346.400 139.200 325.200 L 139.200 304.000 106.500 303.996 C 62.403 303.990,59.748 303.695,47.000 297.367 C 5.439 276.738,1.537 218.174,40.000 192.298 C 41.650 191.188,43.073 190.219,43.161 190.145 C 43.250 190.072,41.891 188.434,40.143 186.506 C -17.179 123.309,22.393 21.799,107.600 13.465 C 110.896 13.143,124.496 13.240,127.800 13.609 M112.462 26.001 C 107.092 28.542,101.673 35.642,97.144 46.071 C 95.078 50.830,91.973 59.936,92.340 60.163 C 95.123 61.883,139.928 61.736,141.744 60.001 C 142.197 59.568,139.236 50.998,136.629 45.200 C 129.016 28.265,121.051 21.938,112.462 26.001 M140.400 28.168 C 140.400 28.261,141.331 29.836,142.469 31.668 C 146.307 37.847,150.576 47.739,152.841 55.700 C 153.708 58.747,153.746 58.800,155.018 58.800 C 158.886 58.800,182.000 53.027,182.000 52.061 C 182.000 50.824,170.805 41.769,164.600 37.988 C 156.605 33.116,140.400 26.540,140.400 28.168 M89.600 29.433 C 84.626 30.933,81.923 31.968,76.800 34.330 C 71.888 36.595,63.596 41.809,59.600 45.145 C 55.010 48.977,52.400 51.416,52.400 51.875 C 52.400 52.599,61.172 55.207,70.000 57.107 C 81.233 59.526,79.998 59.840,81.806 54.100 C 84.721 44.846,88.058 37.331,92.452 30.132 C 93.480 28.448,93.141 28.365,89.600 29.433 M184.215 63.255 C 178.038 65.451,170.782 67.417,163.137 68.964 C 158.400 69.924,156.800 70.336,156.800 70.599 C 156.800 70.661,157.068 72.127,157.395 73.856 C 158.497 79.684,159.669 91.257,160.690 106.400 L 161.000 111.000 184.911 111.103 C 206.738 111.197,208.845 111.149,209.074 110.552 C 210.004 108.127,206.474 92.120,203.129 83.600 C 199.853 75.254,191.726 61.125,190.265 61.235 C 190.009 61.254,187.287 62.163,184.215 63.255 M42.445 63.700 C 35.473 72.960,29.267 86.862,26.844 98.651 C 25.679 104.318,24.790 110.942,25.147 111.303 C 25.312 111.470,36.326 111.560,49.623 111.503 L 73.800 111.400 74.071 104.200 C 74.424 94.828,75.737 82.930,77.345 74.537 C 78.059 70.806,78.212 70.941,71.763 69.602 C 62.084 67.593,53.293 65.133,47.290 62.754 C 45.689 62.119,44.300 61.600,44.203 61.600 C 44.105 61.600,43.314 62.545,42.445 63.700 M89.079 72.538 C 88.951 72.871,88.563 74.911,88.215 77.072 C 87.868 79.232,87.501 81.499,87.400 82.108 C 86.467 87.746,85.067 105.105,85.264 108.600 L 85.400 111.000 117.200 111.000 L 149.000 111.000 148.906 104.800 C 148.777 96.278,147.935 88.216,146.026 77.252 C 145.103 71.944,145.062 71.864,143.454 72.157 C 133.342 74.003,100.666 74.005,90.556 72.159 C 89.660 71.996,89.247 72.102,89.079 72.538 M25.052 123.117 C 24.159 124.562,27.928 141.467,31.036 149.957 C 33.839 157.610,42.232 172.800,43.659 172.800 C 43.896 172.800,45.824 172.147,47.945 171.349 C 54.221 168.988,62.098 166.835,71.800 164.830 L 77.000 163.755 76.975 162.578 C 76.962 161.930,76.566 158.700,76.095 155.400 C 74.790 146.260,73.597 133.321,73.599 128.326 C 73.600 126.415,73.424 124.390,73.210 123.826 L 72.820 122.800 49.034 122.800 C 35.951 122.800,25.159 122.942,25.052 123.117 M85.469 123.064 C 84.454 124.080,85.812 143.697,87.591 153.700 C 87.816 154.965,88.173 157.007,88.385 158.239 C 89.048 162.089,89.071 162.123,90.844 161.839 C 99.206 160.502,134.894 160.492,143.259 161.824 C 144.062 161.952,144.828 161.878,144.963 161.659 C 146.122 159.784,148.616 138.017,148.887 127.400 L 149.000 123.000 117.369 122.898 C 99.972 122.841,85.617 122.916,85.469 123.064 M161.020 123.300 C 160.935 123.575,160.753 126.950,160.616 130.800 C 160.307 139.439,159.212 149.650,157.618 158.744 C 156.708 163.935,156.513 163.677,162.200 164.798 C 169.572 166.252,177.502 168.354,183.600 170.471 C 186.790 171.578,189.745 172.510,190.166 172.542 C 192.264 172.701,201.263 156.378,204.578 146.400 C 207.217 138.458,209.791 125.318,209.075 123.451 C 208.743 122.585,161.288 122.435,161.020 123.300 M102.000 172.783 C 96.110 173.158,92.451 173.594,92.234 173.947 C 92.148 174.086,92.847 176.450,93.787 179.200 C 105.394 213.147,121.365 218.649,134.539 193.239 C 137.348 187.822,142.000 175.833,142.000 174.011 C 142.000 172.940,113.354 172.060,102.000 172.783 M154.538 175.300 C 154.408 175.510,153.532 178.049,152.592 180.941 C 149.595 190.162,146.157 197.857,142.764 202.946 C 140.350 206.566,140.299 206.542,146.234 204.598 C 158.952 200.432,170.572 193.540,180.123 184.498 C 182.518 182.231,182.746 181.462,181.133 181.091 C 180.620 180.973,178.310 180.318,176.000 179.635 C 167.707 177.183,154.965 174.610,154.538 175.300 M71.800 176.996 C 63.774 178.676,53.927 181.349,52.265 182.299 C 50.718 183.183,65.624 194.305,74.800 199.113 C 81.289 202.513,92.810 206.923,93.473 206.261 C 93.590 206.143,92.879 204.732,91.892 203.124 C 87.594 196.118,84.337 188.714,81.588 179.700 C 80.102 174.826,80.993 175.072,71.800 176.996 M220.593 228.615 C 231.897 231.559,236.923 245.562,230.227 255.460 C 223.151 265.917,206.054 265.083,200.402 254.004 C 193.277 240.037,205.489 224.681,220.593 228.615 M273.550 228.754 C 289.574 233.741,289.938 256.631,274.079 261.973 C 263.859 265.416,252.875 258.839,251.116 248.220 C 248.998 235.442,261.153 224.895,273.550 228.754 M328.461 229.683 C 345.154 237.683,339.438 262.800,320.925 262.800 C 307.666 262.800,299.495 249.728,305.207 237.651 C 309.229 229.146,319.790 225.527,328.461 229.683 M50.118 233.468 C 51.739 234.296,52.797 236.268,52.799 238.465 C 52.809 252.158,63.384 263.311,77.600 264.623 C 83.849 265.200,86.308 268.417,84.255 273.331 C 81.598 279.690,63.509 275.550,53.302 266.247 C 39.317 253.499,36.705 226.612,50.118 233.468 M212.896 240.398 C 209.169 242.671,208.971 248.157,212.538 250.361 C 215.285 252.059,219.090 251.112,220.802 248.304 C 223.737 243.490,217.710 237.463,212.896 240.398 M265.560 240.453 C 260.399 243.447,262.388 251.193,268.320 251.199 C 271.795 251.202,273.996 248.978,273.999 245.462 C 274.002 240.856,269.487 238.176,265.560 240.453 M318.025 240.331 C 314.300 242.328,314.262 248.667,317.962 250.581 C 322.016 252.677,326.607 249.893,326.542 245.379 C 326.476 240.823,322.025 238.185,318.025 240.331 M101.800 344.196 C 99.802 344.896,97.113 347.778,96.477 349.900 C 93.589 359.539,107.160 365.215,112.278 356.509 C 116.303 349.661,109.389 341.536,101.800 344.196 M292.250 344.188 C 285.764 346.499,284.602 355.659,290.322 359.379 C 299.134 365.110,308.516 353.874,301.208 346.343 C 298.653 343.710,295.630 342.983,292.250 344.188 M189.400 358.196 C 184.748 359.827,182.447 365.529,184.654 369.958 C 187.861 376.394,196.246 376.701,199.871 370.515 C 203.881 363.672,196.971 355.542,189.400 358.196 " stroke="none" fill="#ffffff" fill-rule="evenodd"></path></g></svg>