<svg id="svg" version="1.1" xmlns="http://www.w3.org/2000/svg" xmlns:xlink="http://www.w3.org/1999/xlink" width="400" height="399.5037220843672" viewBox="0, 0, 400,399.5037220843672"><g id="svgg"><path id="path0" d="M152.147 2.150 C 150.280 2.840,148.168 4.428,147.072 5.967 C 145.035 8.828,145.055 8.515,145.055 38.037 L 145.055 65.584 146.070 67.730 C 150.305 76.681,162.937 76.353,167.178 67.182 C 168.233 64.901,168.543 12.672,167.522 9.308 C 165.730 3.403,158.218 -0.094,152.147 2.150 M90.064 39.384 C 83.866 41.672,80.890 49.259,83.841 55.251 C 85.745 59.118,99.138 72.256,102.413 73.469 C 112.214 77.100,121.526 67.118,117.084 57.742 C 115.862 55.164,102.175 41.311,99.500 39.946 C 97.200 38.772,92.482 38.491,90.064 39.384 M214.939 39.289 C 211.317 40.643,196.785 55.237,195.455 58.856 C 192.059 68.098,201.098 76.965,210.390 73.505 C 213.342 72.406,227.291 59.005,228.996 55.630 C 233.625 46.466,224.405 35.748,214.939 39.289 M300.942 41.976 C 294.636 42.636,288.164 45.061,283.118 48.653 C 282.018 49.436,254.214 76.951,221.330 109.799 C 188.447 142.646,161.435 169.349,161.305 169.138 C 161.175 168.928,160.682 167.064,160.210 164.997 C 159.738 162.930,158.832 158.991,158.197 156.244 C 157.562 153.497,156.512 148.911,155.863 146.054 C 150.422 122.099,138.149 108.428,117.997 103.874 C 100.733 99.972,76.443 108.429,70.978 120.243 L 70.130 122.078 70.027 196.004 L 69.923 269.930 52.381 287.512 C 40.568 299.352,34.537 305.682,33.914 306.893 C 32.609 309.430,32.582 314.307,33.858 316.883 C 34.915 319.017,111.320 395.654,113.533 396.800 C 114.277 397.185,115.407 397.748,116.045 398.051 C 117.750 398.860,230.371 398.871,233.966 398.062 C 240.127 396.676,241.733 396.252,244.347 395.324 C 248.205 393.953,253.174 391.207,256.855 388.412 C 260.554 385.602,358.983 287.146,360.722 284.515 C 374.469 263.724,365.949 237.187,342.852 228.852 C 340.562 228.026,340.271 227.804,340.354 226.946 C 342.434 205.613,333.858 190.778,315.884 184.616 L 313.886 183.931 314.086 181.776 C 314.470 177.630,314.264 169.245,313.728 167.233 C 310.826 156.337,304.417 147.859,295.604 143.257 C 294.342 142.597,293.308 141.884,293.308 141.671 C 293.307 141.458,302.182 132.377,313.029 121.491 C 334.725 99.717,336.203 97.947,338.818 90.618 C 340.428 86.106,340.659 84.561,340.659 78.322 C 340.659 56.430,322.410 39.730,300.942 41.976 M310.290 66.432 C 315.115 68.928,317.461 72.818,317.460 78.322 C 317.459 84.714,321.512 80.200,264.879 136.885 C 237.200 164.590,213.842 188.260,212.972 189.487 C 197.128 211.821,211.159 243.467,238.366 246.762 C 241.267 247.113,241.758 247.462,241.758 249.174 C 241.758 264.589,257.370 280.360,274.326 282.075 L 276.723 282.318 276.985 284.966 C 278.130 296.540,285.686 307.799,295.887 313.129 C 297.104 313.765,298.100 314.472,298.101 314.700 C 298.104 315.974,242.696 370.314,239.952 371.728 C 232.841 375.393,235.890 375.225,176.451 375.225 L 124.078 375.225 92.608 343.757 C 75.300 326.450,61.139 312.108,61.139 311.887 C 61.139 311.666,67.966 304.659,76.311 296.316 C 88.730 283.901,91.643 280.782,92.363 279.135 L 93.242 277.123 93.140 203.989 C 93.042 133.467,93.065 130.832,93.772 130.208 C 103.526 121.608,123.399 126.823,129.626 139.616 C 131.352 143.161,131.171 142.473,136.461 165.634 C 138.118 172.887,139.740 179.945,140.067 181.319 C 140.393 182.692,140.920 184.940,141.238 186.314 C 144.268 199.387,143.511 197.923,151.398 205.983 C 160.675 215.464,164.554 221.096,167.234 228.974 C 173.468 247.303,169.338 266.072,155.745 281.189 C 145.135 292.990,160.229 308.784,171.779 297.967 C 199.586 271.926,200.297 223.872,173.300 195.123 L 171.348 193.044 172.178 191.927 C 174.544 188.742,296.429 67.538,298.102 66.707 C 302.043 64.749,306.827 64.640,310.290 66.432 M281.233 162.410 C 289.511 164.614,293.745 173.925,289.793 181.236 C 287.697 185.115,251.693 220.910,248.352 222.438 C 236.952 227.649,225.403 215.714,230.997 204.502 C 232.047 202.398,268.704 165.472,271.239 163.965 C 274.568 161.986,277.769 161.488,281.233 162.410 M309.690 207.220 C 316.523 210.384,319.589 218.499,316.400 224.975 C 314.521 228.790,285.920 256.944,282.717 258.131 C 271.728 262.203,261.027 250.506,266.095 239.960 C 267.133 237.799,293.439 210.883,296.808 208.535 C 300.564 205.916,305.737 205.388,309.690 207.220 M335.430 250.971 C 342.651 253.672,346.195 262.601,342.716 269.331 C 341.264 272.139,321.961 291.562,319.481 292.710 C 308.222 297.920,296.707 287.758,300.912 276.324 C 302.198 272.827,322.578 252.330,326.074 251.017 C 328.987 249.923,332.582 249.905,335.430 250.971 " stroke="none" fill="#060606" fill-rule="evenodd"></path><path id="path1" d="M0.400 200.000 L 0.400 399.600 200.000 399.600 L 399.600 399.600 399.600 200.000 L 399.600 0.400 200.000 0.400 L 0.400 0.400 0.400 200.000 M162.456 3.006 C 164.773 4.439,166.815 6.979,167.522 9.308 C 168.543 12.672,168.233 64.901,167.178 67.182 C 162.937 76.353,150.305 76.681,146.070 67.730 L 145.055 65.584 145.055 38.037 C 145.055 8.515,145.035 8.828,147.072 5.967 C 150.186 1.594,157.804 0.128,162.456 3.006 M99.500 39.946 C 102.175 41.311,115.862 55.164,117.084 57.742 C 121.526 67.118,112.214 77.100,102.413 73.469 C 99.138 72.256,85.745 59.118,83.841 55.251 C 79.015 45.453,89.744 34.968,99.500 39.946 M224.256 40.069 C 229.743 43.284,231.808 50.063,228.996 55.630 C 227.291 59.005,213.342 72.406,210.390 73.505 C 201.098 76.965,192.059 68.098,195.455 58.856 C 196.785 55.237,211.317 40.643,214.939 39.289 C 217.310 38.402,222.096 38.803,224.256 40.069 M310.510 42.374 C 322.995 44.120,334.404 53.651,338.818 66.025 C 340.428 70.537,340.659 72.083,340.659 78.322 C 340.659 84.561,340.428 86.106,338.818 90.618 C 336.203 97.947,334.725 99.717,313.029 121.491 C 302.182 132.377,293.307 141.458,293.308 141.671 C 293.308 141.884,294.342 142.597,295.604 143.257 C 304.417 147.859,310.826 156.337,313.728 167.233 C 314.264 169.245,314.470 177.630,314.086 181.776 L 313.886 183.931 315.884 184.616 C 333.858 190.778,342.434 205.613,340.354 226.946 C 340.271 227.804,340.562 228.026,342.852 228.852 C 365.949 237.187,374.469 263.724,360.722 284.515 C 358.983 287.146,260.554 385.602,256.855 388.412 C 253.174 391.207,248.205 393.953,244.347 395.324 C 241.733 396.252,240.127 396.676,233.966 398.062 C 230.371 398.871,117.750 398.860,116.045 398.051 C 115.407 397.748,114.277 397.185,113.533 396.800 C 111.320 395.654,34.915 319.017,33.858 316.883 C 32.582 314.307,32.609 309.430,33.914 306.893 C 34.537 305.682,40.568 299.352,52.381 287.512 L 69.923 269.930 70.027 196.004 L 70.130 122.078 70.978 120.243 C 76.443 108.429,100.733 99.972,117.997 103.874 C 138.149 108.428,150.422 122.099,155.863 146.054 C 156.512 148.911,157.562 153.497,158.197 156.244 C 158.832 158.991,159.738 162.930,160.210 164.997 C 160.682 167.064,161.175 168.928,161.305 169.138 C 161.435 169.349,188.447 142.646,221.330 109.799 C 254.214 76.951,282.018 49.436,283.118 48.653 C 291.130 42.949,300.030 40.908,310.510 42.374 M300.899 65.485 C 297.288 66.672,295.846 68.058,234.656 129.205 C 200.750 163.087,172.635 191.312,172.178 191.927 L 171.348 193.044 173.300 195.123 C 200.297 223.872,199.586 271.926,171.779 297.967 C 160.229 308.784,145.135 292.990,155.745 281.189 C 169.338 266.072,173.468 247.303,167.234 228.974 C 164.554 221.096,160.675 215.464,151.398 205.983 C 143.511 197.923,144.268 199.387,141.238 186.314 C 140.920 184.940,140.393 182.692,140.067 181.319 C 139.740 179.945,138.118 172.887,136.461 165.634 C 131.171 142.473,131.352 143.161,129.626 139.616 C 123.399 126.823,103.526 121.608,93.772 130.208 C 93.065 130.832,93.042 133.467,93.140 203.989 L 93.242 277.123 92.363 279.135 C 91.643 280.782,88.730 283.901,76.311 296.316 C 67.966 304.659,61.139 311.666,61.139 311.887 C 61.139 312.108,75.300 326.450,92.608 343.757 L 124.078 375.225 176.451 375.225 C 235.890 375.225,232.841 375.393,239.952 371.728 C 242.696 370.314,298.104 315.974,298.101 314.700 C 298.100 314.472,297.104 313.765,295.887 313.129 C 285.686 307.799,278.130 296.540,276.985 284.966 L 276.723 282.318 274.326 282.075 C 257.370 280.360,241.758 264.589,241.758 249.174 C 241.758 247.462,241.267 247.113,238.366 246.762 C 211.159 243.467,197.128 211.821,212.972 189.487 C 213.842 188.260,237.200 164.590,264.879 136.885 C 321.512 80.200,317.459 84.714,317.460 78.322 C 317.462 69.567,308.834 62.879,300.899 65.485 M274.836 162.429 C 273.797 162.715,272.179 163.406,271.239 163.965 C 268.704 165.472,232.047 202.398,230.997 204.502 C 225.403 215.714,236.952 227.649,248.352 222.438 C 251.693 220.910,287.697 185.115,289.793 181.236 C 295.087 171.442,285.569 159.475,274.836 162.429 M300.005 206.799 C 297.211 207.825,295.111 209.716,281.080 223.842 C 264.887 240.145,265.135 239.804,265.135 245.754 C 265.135 255.278,273.854 261.415,282.717 258.131 C 285.920 256.944,314.521 228.790,316.400 224.975 C 321.427 214.766,310.698 202.871,300.005 206.799 M326.074 251.017 C 322.578 252.330,302.198 272.827,300.912 276.324 C 296.707 287.758,308.222 297.920,319.481 292.710 C 321.961 291.562,341.264 272.139,342.716 269.331 C 348.140 258.838,337.227 246.828,326.074 251.017 " stroke="none" fill="#ffffff" fill-rule="evenodd"></path></g></svg>