<svg id="svg" version="1.1" xmlns="http://www.w3.org/2000/svg" xmlns:xlink="http://www.w3.org/1999/xlink" width="400" height="400" viewBox="0, 0, 400,400"><g id="svgg"><path id="path0" d="M297.985 30.218 L 270.720 58.436 270.384 61.318 C 270.200 62.903,269.852 66.630,269.612 69.600 C 269.166 75.119,268.651 81.087,268.006 88.200 C 267.807 90.400,267.430 94.810,267.170 98.000 L 266.696 103.800 238.049 132.500 L 209.402 161.200 204.971 161.200 C 184.981 161.200,171.676 168.529,164.072 183.728 C 145.327 221.196,192.005 257.906,224.511 231.261 C 235.353 222.374,241.736 204.587,238.016 193.629 L 237.144 191.058 265.843 162.357 L 294.543 133.655 297.572 133.410 C 299.237 133.276,302.490 133.000,304.800 132.798 C 307.110 132.596,311.250 132.239,314.000 132.004 C 316.750 131.770,320.710 131.412,322.800 131.209 C 324.890 131.005,329.480 130.623,333.000 130.358 L 339.400 129.877 367.836 101.638 C 383.476 86.107,396.301 73.175,396.336 72.900 C 396.387 72.504,390.907 72.400,370.097 72.400 L 343.793 72.400 334.897 63.497 L 326.000 54.593 326.000 28.297 C 326.000 12.206,325.854 2.000,325.625 2.000 C 325.419 2.000,312.981 14.698,297.985 30.218 M190.400 3.444 C 148.214 5.170,103.396 22.798,72.200 49.936 C 16.909 98.034,-7.672 166.350,5.036 236.600 C 18.271 309.769,74.619 371.567,146.000 391.198 C 146.990 391.470,148.250 391.838,148.800 392.015 C 153.564 393.549,167.144 396.107,177.400 397.403 C 213.319 401.941,255.126 394.361,288.400 377.277 C 371.171 334.780,413.506 242.471,391.344 152.818 C 388.415 140.970,380.687 120.400,379.165 120.400 C 378.215 120.400,350.000 147.281,350.000 148.186 C 350.000 148.687,350.452 150.876,351.005 153.049 C 356.007 172.722,358.413 195.190,357.230 211.200 C 356.237 224.639,353.193 240.559,350.001 249.000 C 349.585 250.100,348.348 253.430,347.253 256.400 C 331.634 298.735,296.621 333.469,253.660 349.249 C 244.076 352.769,241.069 353.658,232.200 355.593 C 211.302 360.151,185.802 360.141,166.400 355.568 C 165.410 355.335,163.790 354.955,162.800 354.723 C 123.158 345.456,86.227 318.466,64.562 282.927 C 59.704 274.959,54.164 263.903,52.272 258.400 C 51.931 257.410,51.078 255.070,50.376 253.200 C 25.606 187.218,53.683 105.354,113.800 68.277 C 122.736 62.765,124.728 61.648,131.200 58.513 C 135.050 56.648,138.650 54.976,139.200 54.797 C 139.750 54.618,141.730 53.897,143.600 53.195 C 170.802 42.980,199.820 40.215,225.400 45.400 C 230.954 46.526,240.300 48.870,245.484 50.439 C 252.969 52.703,252.800 52.678,252.800 51.513 C 252.800 50.879,257.003 46.416,267.486 35.919 C 276.612 26.781,282.026 21.076,281.786 20.851 C 281.378 20.468,272.140 16.514,270.415 15.983 C 269.857 15.812,267.870 15.102,266.000 14.405 C 252.713 9.456,234.300 5.519,217.400 4.014 C 212.537 3.581,195.725 3.226,190.400 3.444 M190.000 82.797 C 181.088 83.418,168.569 86.066,160.400 89.057 C 158.310 89.822,156.060 90.645,155.400 90.887 C 134.196 98.642,110.770 118.646,97.887 140.000 C 79.888 169.833,75.905 208.519,87.591 240.000 C 88.285 241.870,89.133 244.210,89.475 245.200 C 99.857 275.229,134.066 306.101,166.596 314.797 C 173.598 316.669,175.568 317.126,178.600 317.582 C 180.360 317.846,182.620 318.219,183.621 318.410 C 189.488 319.530,212.196 319.681,213.986 318.613 C 214.104 318.543,216.270 318.184,218.800 317.816 C 221.330 317.448,224.705 316.799,226.300 316.373 C 227.895 315.948,230.595 315.228,232.300 314.773 C 266.383 305.685,298.351 275.966,310.580 242.000 C 320.491 214.472,320.271 183.475,310.000 160.200 C 309.417 158.880,308.337 156.405,307.598 154.700 C 305.483 149.816,306.293 149.285,291.165 165.481 C 284.034 173.115,277.865 179.784,277.454 180.302 C 276.727 181.219,276.727 181.332,277.454 184.921 C 279.166 193.366,278.426 210.719,275.942 220.400 C 264.513 264.936,216.212 291.044,173.800 275.611 C 172.480 275.131,170.950 274.596,170.400 274.423 C 157.497 270.366,140.422 255.871,131.891 241.732 C 97.579 184.869,145.125 113.252,210.800 122.874 C 213.330 123.245,216.210 123.640,217.200 123.753 L 219.000 123.959 233.900 109.087 C 249.031 93.983,249.857 92.993,248.100 92.054 C 236.979 86.108,208.224 81.526,190.000 82.797 " stroke="none" fill="#050505" fill-rule="evenodd"></path><path id="path1" d="M0.000 200.000 L 0.000 399.600 199.800 399.600 L 399.600 399.600 399.600 200.000 L 399.600 0.400 199.800 0.400 L 0.000 0.400 0.000 200.000 M326.000 28.297 L 326.000 54.593 334.897 63.497 L 343.793 72.400 370.097 72.400 C 390.907 72.400,396.387 72.504,396.336 72.900 C 396.301 73.175,383.476 86.107,367.836 101.638 L 339.400 129.877 333.000 130.358 C 329.480 130.623,324.890 131.005,322.800 131.209 C 320.710 131.412,316.750 131.770,314.000 132.004 C 311.250 132.239,307.110 132.596,304.800 132.798 C 302.490 133.000,299.237 133.276,297.572 133.410 L 294.543 133.655 265.843 162.357 L 237.144 191.058 238.016 193.629 C 241.736 204.587,235.353 222.374,224.511 231.261 C 192.005 257.906,145.327 221.196,164.072 183.728 C 171.676 168.529,184.981 161.200,204.971 161.200 L 209.402 161.200 238.049 132.500 L 266.696 103.800 267.170 98.000 C 267.430 94.810,267.807 90.400,268.006 88.200 C 268.651 81.087,269.166 75.119,269.612 69.600 C 269.852 66.630,270.200 62.903,270.384 61.318 L 270.720 58.436 297.985 30.218 C 312.981 14.698,325.419 2.000,325.625 2.000 C 325.854 2.000,326.000 12.206,326.000 28.297 M217.400 4.014 C 231.348 5.256,244.334 7.718,257.400 11.595 C 260.260 12.444,264.130 13.709,266.000 14.405 C 267.870 15.102,269.857 15.812,270.415 15.983 C 272.140 16.514,281.378 20.468,281.786 20.851 C 282.026 21.076,276.612 26.781,267.486 35.919 C 257.003 46.416,252.800 50.879,252.800 51.513 C 252.800 52.678,252.969 52.703,245.484 50.439 C 240.300 48.870,230.954 46.526,225.400 45.400 C 199.820 40.215,170.802 42.980,143.600 53.195 C 141.730 53.897,139.750 54.618,139.200 54.797 C 138.650 54.976,135.050 56.648,131.200 58.513 C 124.728 61.648,122.736 62.765,113.800 68.277 C 53.683 105.354,25.606 187.218,50.376 253.200 C 51.078 255.070,51.931 257.410,52.272 258.400 C 54.164 263.903,59.704 274.959,64.562 282.927 C 86.227 318.466,123.158 345.456,162.800 354.723 C 163.790 354.955,165.410 355.335,166.400 355.568 C 187.642 360.575,213.414 360.147,237.600 354.387 C 251.057 351.181,268.068 343.974,281.398 335.829 C 311.524 317.422,335.335 288.702,347.253 256.400 C 348.348 253.430,349.585 250.100,350.001 249.000 C 353.193 240.559,356.237 224.639,357.230 211.200 C 358.413 195.190,356.007 172.722,351.005 153.049 C 350.452 150.876,350.000 148.687,350.000 148.186 C 350.000 147.281,378.215 120.400,379.165 120.400 C 380.687 120.400,388.415 140.970,391.344 152.818 C 420.635 271.309,336.486 388.176,214.800 398.002 C 205.116 398.784,185.895 398.476,177.400 397.403 C 167.144 396.107,153.564 393.549,148.800 392.015 C 148.250 391.838,146.990 391.470,146.000 391.198 C 74.619 371.567,18.271 309.769,5.036 236.600 C -7.672 166.350,16.909 98.034,72.200 49.936 C 110.434 16.676,165.177 -0.638,217.400 4.014 M218.623 84.015 C 228.164 85.608,244.250 89.995,248.100 92.054 C 249.857 92.993,249.031 93.983,233.900 109.087 L 219.000 123.959 217.200 123.753 C 216.210 123.640,213.330 123.245,210.800 122.874 C 145.125 113.252,97.579 184.869,131.891 241.732 C 140.422 255.871,157.497 270.366,170.400 274.423 C 170.950 274.596,172.480 275.131,173.800 275.611 C 216.212 291.044,264.513 264.936,275.942 220.400 C 278.426 210.719,279.166 193.366,277.454 184.921 C 276.727 181.332,276.727 181.219,277.454 180.302 C 277.865 179.784,284.034 173.115,291.165 165.481 C 306.293 149.285,305.483 149.816,307.598 154.700 C 308.337 156.405,309.417 158.880,310.000 160.200 C 320.271 183.475,320.491 214.472,310.580 242.000 C 298.351 275.966,266.383 305.685,232.300 314.773 C 230.595 315.228,227.895 315.948,226.300 316.373 C 224.705 316.799,221.330 317.448,218.800 317.816 C 216.270 318.184,214.104 318.543,213.986 318.613 C 212.196 319.681,189.488 319.530,183.621 318.410 C 182.620 318.219,180.360 317.846,178.600 317.582 C 175.568 317.126,173.598 316.669,166.596 314.797 C 134.066 306.101,99.857 275.229,89.475 245.200 C 89.133 244.210,88.285 241.870,87.591 240.000 C 75.905 208.519,79.888 169.833,97.887 140.000 C 110.770 118.646,134.196 98.642,155.400 90.887 C 156.060 90.645,158.310 89.822,160.400 89.057 C 177.475 82.805,199.803 80.872,218.623 84.015 " stroke="none" fill="#ffffff" fill-rule="evenodd"></path></g></svg>